<?xml version="1.0" encoding="iso-8859-1"?>
<!-- Generator: Adobe Illustrator 19.0.0, SVG Export Plug-In . SVG Version: 6.00 Build 0)  -->
<svg version="1.1" id="Capa_1" xmlns="http://www.w3.org/2000/svg" xmlns:xlink="http://www.w3.org/1999/xlink" x="0px" y="0px"
	 viewBox="0 0 512 512" style="enable-background:new 0 0 512 512;" xml:space="preserve">
<g>
	<g>
		<path d="M437.02,74.98c-24.084-24.084-52.123-42.774-82.651-55.473c-5.446-3.929-11.374-6.166-17.59-6.562
			C311.067,4.428,283.874,0,256,0c-28.022,0-55.666,5.152-82.424,15.324c-0.069,0.026-0.137,0.054-0.205,0.081
			c-5.835,2.224-11.63,4.677-17.375,7.378c-29.98,14.095-57.293,33.96-81.184,59.043c-22.873,24.015-41.77,52.348-54.651,81.938
			C6.972,194.065,0,225.959,0,256c0,68.38,26.629,132.667,74.98,181.02C123.332,485.372,187.619,512,256,512
			c12.23,0,24.386-0.997,36.43-2.948c0.572,0.013,1.144,0.035,1.717,0.036c0.006,0,0.012,0,0.019,0c1.675,0,3.251-0.421,4.633-1.159
			c19.448-3.714,38.579-9.953,57.206-18.711c29.98-14.095,57.293-33.96,81.184-59.043c22.873-24.015,41.77-52.348,54.651-81.938
			C505.028,317.935,512,286.041,512,256C512,187.62,485.371,123.333,437.02,74.98z M450.552,381.884
			c-6.786-22.522-20.686-37.269-37.014-37.269c-5.438,0-9.846,4.409-9.846,9.846s4.408,9.846,9.846,9.846
			c8.575,0,18.737,15.382,21.199,38.676c-35.809,43.224-85.954,76.496-143.602,86.33c-26.575-1.269-51.461-18.391-64.012-44.328
			c-2.368-4.896-8.256-6.941-13.151-4.575c-4.896,2.369-6.944,8.257-4.575,13.151c7.583,15.672,18.847,28.767,32.269,38.299
			C118.016,484.424,19.692,381.486,19.692,256c0-73.56,46.775-155.159,117.943-200.645C131.419,68.534,128,83.276,128,98.462
			c0,5.437,4.408,9.846,9.846,9.846s9.846-4.409,9.846-9.846c0-26.681,12.958-51.551,33.865-65.13
			c23.292-8.715,48.286-13.639,74.443-13.639c31.298,0,61.186,6.131,88.548,17.231c10.574,9.285,19.759,32.596,19.759,61.538
			c0,5.437,4.408,9.846,9.846,9.846s9.846-4.409,9.846-9.846c0-16.355-2.527-32.058-7.231-45.5
			C445.902,94.239,492.308,169.797,492.308,256C492.308,298.087,476.983,342.802,450.552,381.884z"/>
	</g>
</g>
<g>
	<g>
		<path d="M404.443,252.48c-0.56-1.461-13.346-34.415-41.272-68.539c21.896-32.242,33.387-54.772,33.894-55.773
			c1.926-3.798,1.191-8.404-1.82-11.416c-3.011-3.011-7.615-3.745-11.416-1.82c-1,0.508-23.528,12-55.772,33.895
			c-34.123-27.926-67.078-40.712-68.541-41.271c-3.627-1.387-7.733-0.513-10.48,2.234s-3.622,6.852-2.235,10.48
			c0.502,1.313,11.715,30.236,36.027,61.923c-19.014,15.225-36.868,31.16-53.17,47.464c-2.626,2.625-5.274,5.325-7.923,8.078
			c-44.833-38.393-84.775-59.198-86.541-60.11c-3.807-1.965-8.45-1.244-11.479,1.786c-3.031,3.03-3.753,7.671-1.787,11.479
			c0.941,1.824,22.571,43.346,62.435,89.241c-44.611,55.138-68.401,101.669-69.43,103.697c-1.926,3.798-1.191,8.404,1.82,11.416
			c1.89,1.891,4.411,2.884,6.965,2.884c1.512,0,3.037-0.349,4.451-1.064c2.028-1.028,48.559-24.819,103.696-69.43
			c45.895,39.862,87.418,61.494,89.241,62.434c3.807,1.965,8.449,1.244,11.479-1.786c3.03-3.03,3.752-7.672,1.786-11.479
			c-0.911-1.765-21.717-41.707-60.109-86.541c2.756-2.654,5.457-5.302,8.079-7.924c16.309-16.309,32.244-34.161,47.463-53.17
			c31.688,24.311,60.612,35.524,61.924,36.026c3.629,1.386,7.733,0.513,10.48-2.235C404.956,260.214,405.83,256.108,404.443,252.48z
			 M334.485,207.721c-2.051-1.7-4.703-2.497-7.353-2.205c-2.648,0.289-5.066,1.64-6.701,3.744
			c-16.562,21.301-34.063,41.204-52.014,59.157c-4.625,4.624-9.504,9.337-14.504,14.009c-3.905,3.648-4.187,9.746-0.635,13.739
			c17.994,20.23,32.473,40.032,43.043,55.86c-16.272-10.867-36.756-25.88-57.633-44.638c-3.632-3.262-9.108-3.374-12.866-0.255
			c-28.535,23.665-55.464,41.906-75.113,54.155c12.236-19.629,30.464-46.536,54.16-75.107c3.117-3.758,3.009-9.235-0.255-12.866
			c-18.731-20.846-33.752-41.348-44.632-57.638c15.81,10.56,35.597,25.032,55.854,43.05c3.995,3.554,10.092,3.269,13.739-0.636
			c4.66-4.99,9.374-9.87,14.008-14.503c17.945-17.947,37.848-35.447,59.157-52.015c2.103-1.635,3.454-4.054,3.743-6.702
			c0.289-2.648-0.506-5.301-2.206-7.353c-11.614-14.019-20.532-28.036-26.895-39.386c12.463,6.991,28.16,17.081,43.611,30.498
			c3.402,2.954,8.372,3.221,12.071,0.653c10.418-7.234,19.985-13.453,28.265-18.61c-5.157,8.281-11.376,17.848-18.61,28.266
			c-2.569,3.699-2.3,8.67,0.654,12.071c13.383,15.41,23.479,31.131,30.484,43.62C362.532,228.275,348.539,219.364,334.485,207.721z"
			/>
	</g>
</g>
<g>
	<g>
		<path d="M144.807,121.039c-1.831-1.831-4.372-2.885-6.961-2.885s-5.13,1.053-6.961,2.885C129.054,122.87,128,125.41,128,128
			c0,2.59,1.054,5.13,2.885,6.96c1.831,1.832,4.372,2.886,6.961,2.886s5.13-1.054,6.961-2.886c1.831-1.83,2.885-4.371,2.885-6.96
			S146.639,122.87,144.807,121.039z"/>
	</g>
</g>
<g>
</g>
<g>
</g>
<g>
</g>
<g>
</g>
<g>
</g>
<g>
</g>
<g>
</g>
<g>
</g>
<g>
</g>
<g>
</g>
<g>
</g>
<g>
</g>
<g>
</g>
<g>
</g>
<g>
</g>
</svg>
